<svg width="20" height="20" viewBox="0 0 20 20" fill="none" xmlns="http://www.w3.org/2000/svg">
<path d="M9.34167 0.290555L1.21508 3.33803C0.48447 3.61152 0 4.31478 0 5.09618V13.8909C0 14.6019 0.402422 15.2505 1.03536 15.567L9.16195 19.6303C9.68939 19.8959 10.3106 19.8959 10.8381 19.6303L18.9646 15.567C19.6015 15.2505 20 14.598 20 13.8909V5.09618C20 4.31478 19.5155 3.61542 18.7849 3.34193L10.6583 0.294462C10.2364 0.130368 9.76753 0.130368 9.34167 0.290555ZM10.002 2.71681L17.5034 5.52986V5.57284L10.002 8.62031L2.50049 5.57284V5.52986L10.002 2.71681ZM11.2522 16.6258V10.8082L17.5034 8.26868V13.5002L11.2522 16.6258Z" fill="white"/>
</svg>
